<?xml version="1.0" standalone="no"?>
<!DOCTYPE svg PUBLIC "-//W3C//DTD SVG 20010904//EN"
 "http://www.w3.org/TR/2001/REC-SVG-20010904/DTD/svg10.dtd">
<svg version="1.0" xmlns="http://www.w3.org/2000/svg"
 width="601.000000pt" height="601.000000pt" viewBox="0 0 601.000000 601.000000"
 preserveAspectRatio="xMidYMid meet">
<metadata>
Created by potrace 1.14, written by Peter Selinger 2001-2017
</metadata>
<g transform="translate(0.000000,601.000000) scale(0.100000,-0.100000)"
fill="#000000" stroke="none">
<path d="M2798 6006 c-1 -2 -37 -6 -78 -10 -91 -8 -114 -11 -240 -32 -402 -68
-814 -236 -1165 -475 -752 -513 -1229 -1330 -1305 -2239 -8 -96 -5 -466 4
-551 70 -640 334 -1235 756 -1703 500 -555 1203 -910 1945 -983 122 -12 517
-8 634 6 57 7 149 21 205 32 55 11 112 22 126 25 91 18 365 103 445 139 17 7
64 28 105 46 195 83 494 264 649 393 510 424 837 913 1012 1515 17 59 32 113
34 121 2 8 8 35 14 60 5 25 13 61 16 80 3 19 8 42 10 50 5 18 12 78 30 230 12
107 13 525 1 605 -3 17 -8 57 -11 90 -4 33 -8 62 -10 65 -2 3 -6 26 -10 50
-24 172 -112 471 -195 665 -53 122 -126 263 -191 370 -27 44 -55 89 -62 100
-31 51 -212 287 -264 345 -324 358 -706 626 -1138 797 -121 48 -294 105 -375
123 -109 25 -231 49 -270 54 -103 14 -127 17 -160 22 -38 5 -506 14 -512 10z"/>
</g>
</svg>
